<svg xmlns="http://www.w3.org/2000/svg" viewBox="0 0 208.65 60.92"><defs><style>.cls-1{fill:#fff;}</style></defs><title>logo</title><g id="Layer_2" data-name="Layer 2"><g id="Layer_1-2" data-name="Layer 1"><path class="cls-1" d="M0,59.79V1.13H13.56V47.8H31.29v12Z"/><path class="cls-1" d="M87,42.58a29.41,29.41,0,0,1-6.21,9.91,27.15,27.15,0,0,1-9.26,6.26,29.87,29.87,0,0,1-11.38,2.17,31.76,31.76,0,0,1-11.87-2A21.89,21.89,0,0,1,39.8,53a24.82,24.82,0,0,1-5-9.34A43.1,43.1,0,0,1,33.11,31.2a34.75,34.75,0,0,1,2.3-12.91,29.91,29.91,0,0,1,6.26-9.86,27.11,27.11,0,0,1,9.25-6.26A29.68,29.68,0,0,1,62.22,0,32.32,32.32,0,0,1,73,1.74a22.56,22.56,0,0,1,8.56,5.34,25.06,25.06,0,0,1,5.65,9.17,38.7,38.7,0,0,1,2,13.3A35.66,35.66,0,0,1,87,42.58ZM71.43,16.9Q68,12.34,61.18,12.34a13,13,0,0,0-5.08,1,12,12,0,0,0-4.39,3.22,16.43,16.43,0,0,0-3.09,5.52,24.14,24.14,0,0,0-1.17,8q0,8.52,3.26,13.47t10.21,5a13.71,13.71,0,0,0,4.91-1,12.1,12.1,0,0,0,4.47-3.09,16.55,16.55,0,0,0,3.31-5.6,24.09,24.09,0,0,0,1.3-8.43Q74.91,21.46,71.43,16.9Z"/><path class="cls-1" d="M143,15.29a42.55,42.55,0,0,0-7.39-2.17,41.6,41.6,0,0,0-8.16-.78q-8.43,0-13.34,4.91t-4.91,13.6q0,8.17,4.21,12.91t12.47,4.73a17.68,17.68,0,0,0,5.56-.78V28.5H145V56.92a53.9,53.9,0,0,1-9.6,2.78,56.09,56.09,0,0,1-11,1,37.37,37.37,0,0,1-12.68-2A25.32,25.32,0,0,1,102.41,53a24.73,24.73,0,0,1-5.77-9.08,34,34,0,0,1-2-12A34.58,34.58,0,0,1,96.94,19a27.47,27.47,0,0,1,6.69-10,30.76,30.76,0,0,1,10.6-6.48,40.3,40.3,0,0,1,14-2.3,54.82,54.82,0,0,1,8.78.7,61.68,61.68,0,0,1,8.08,1.82Z"/><path class="cls-1" d="M206.39,42.58a29.1,29.1,0,0,1-6.21,9.91,27.11,27.11,0,0,1-9.25,6.26,29.92,29.92,0,0,1-11.39,2.17,31.71,31.71,0,0,1-11.86-2A21.82,21.82,0,0,1,159.21,53a24.82,24.82,0,0,1-5-9.34,42.75,42.75,0,0,1-1.66-12.43,34.55,34.55,0,0,1,2.31-12.91,29.88,29.88,0,0,1,6.25-9.86,27.05,27.05,0,0,1,9.26-6.26A29.64,29.64,0,0,1,181.63,0,32.26,32.26,0,0,1,192.4,1.74,22.48,22.48,0,0,1,201,7.08a24.8,24.8,0,0,1,5.65,9.17,38.7,38.7,0,0,1,2,13.3A35.66,35.66,0,0,1,206.39,42.58ZM190.84,16.9q-3.48-4.56-10.26-4.56a13.08,13.08,0,0,0-5.08,1,12.06,12.06,0,0,0-4.39,3.22A16.59,16.59,0,0,0,168,22.12a23.86,23.86,0,0,0-1.18,8q0,8.52,3.26,13.47t10.21,5a13.71,13.71,0,0,0,4.91-1,12.13,12.13,0,0,0,4.48-3.09,16.7,16.7,0,0,0,3.3-5.6,24.09,24.09,0,0,0,1.3-8.43Q194.31,21.46,190.84,16.9Z"/></g></g></svg>
