<svg xmlns="http://www.w3.org/2000/svg" viewBox="0 0 44.73 35.15"><title>dashboard-icon</title><style>path{fill:#fff}</style><g id="Layer_2" data-name="Layer 2"><g id="Layer_1-2" data-name="Layer 1"><path d="M12.78,2.4V7.19a2.39,2.39,0,0,1-2.4,2.4h-8a2.32,2.32,0,0,1-1.7-.7A2.3,2.3,0,0,1,0,7.19V2.4A2.3,2.3,0,0,1,.7.7,2.29,2.29,0,0,1,2.4,0h8a2.29,2.29,0,0,1,1.7.7A2.3,2.3,0,0,1,12.78,2.4Zm0,12.78V20a2.39,2.39,0,0,1-2.4,2.4h-8a2.32,2.32,0,0,1-1.7-.7A2.3,2.3,0,0,1,0,20V15.18a2.3,2.3,0,0,1,.7-1.7,2.32,2.32,0,0,1,1.7-.7h8a2.39,2.39,0,0,1,2.4,2.4Zm0,12.78v4.79a2.39,2.39,0,0,1-2.4,2.4h-8a2.29,2.29,0,0,1-1.7-.7,2.3,2.3,0,0,1-.7-1.7V28a2.3,2.3,0,0,1,.7-1.7,2.32,2.32,0,0,1,1.7-.7h8a2.39,2.39,0,0,1,2.4,2.4Zm16-25.56V7.19a2.39,2.39,0,0,1-2.4,2.4h-8A2.39,2.39,0,0,1,16,7.19V2.4a2.3,2.3,0,0,1,.7-1.7A2.28,2.28,0,0,1,18.37,0h8a2.3,2.3,0,0,1,1.7.7A2.34,2.34,0,0,1,28.76,2.4Zm0,12.78V20a2.39,2.39,0,0,1-2.4,2.4h-8A2.39,2.39,0,0,1,16,20V15.18a2.39,2.39,0,0,1,2.39-2.4h8a2.39,2.39,0,0,1,2.4,2.4Zm0,12.78v4.79a2.34,2.34,0,0,1-.7,1.7,2.3,2.3,0,0,1-1.7.7h-8A2.39,2.39,0,0,1,16,32.75V28a2.39,2.39,0,0,1,2.39-2.4h8a2.39,2.39,0,0,1,2.4,2.4Zm16-25.56V7.19A2.33,2.33,0,0,1,44,8.89a2.36,2.36,0,0,1-1.7.7h-8A2.39,2.39,0,0,1,32,7.19V2.4a2.34,2.34,0,0,1,.7-1.7,2.3,2.3,0,0,1,1.7-.7h8A2.32,2.32,0,0,1,44,.7,2.33,2.33,0,0,1,44.73,2.4Zm0,12.78V20a2.33,2.33,0,0,1-.69,1.7,2.36,2.36,0,0,1-1.7.7h-8A2.39,2.39,0,0,1,32,20V15.18a2.39,2.39,0,0,1,2.4-2.4h8a2.36,2.36,0,0,1,1.7.7A2.33,2.33,0,0,1,44.73,15.18Zm0,12.78v4.79a2.37,2.37,0,0,1-2.39,2.4h-8a2.3,2.3,0,0,1-1.7-.7,2.34,2.34,0,0,1-.7-1.7V28a2.39,2.39,0,0,1,2.4-2.4h8a2.36,2.36,0,0,1,1.7.7A2.33,2.33,0,0,1,44.73,28Z"/></g></g></svg>
