<svg xmlns="http://www.w3.org/2000/svg" viewBox="0 0 45.4 45.4"><title>search-icon</title><style>path{fill:#ddd}</style><g id="Layer_2" data-name="Layer 2"><g id="Layer_1-2" data-name="Layer 1"><path d="M44.39,39.45a3.51,3.51,0,0,1-2.48,5.95,3.26,3.26,0,0,1-2.46-1L30.09,35a18.62,18.62,0,0,1-10.88,3.38,18.84,18.84,0,0,1-7.46-1.51,19.14,19.14,0,0,1-6.14-4.09,19.27,19.27,0,0,1-4.1-6.14,19.18,19.18,0,0,1,0-14.92A18.89,18.89,0,0,1,11.75,1.51a19.18,19.18,0,0,1,14.92,0,19.27,19.27,0,0,1,6.14,4.1,19.14,19.14,0,0,1,4.09,6.14,18.84,18.84,0,0,1,1.51,7.46A18.62,18.62,0,0,1,35,30.09l9.36,9.36ZM27.84,27.84a11.77,11.77,0,0,0,3.59-8.63,11.78,11.78,0,0,0-3.59-8.64A11.77,11.77,0,0,0,19.21,7a11.78,11.78,0,0,0-8.64,3.59A11.78,11.78,0,0,0,7,19.21a11.77,11.77,0,0,0,3.59,8.63,11.78,11.78,0,0,0,8.64,3.59A11.77,11.77,0,0,0,27.84,27.84Z"/></g></g></svg>
