<svg xmlns="http://www.w3.org/2000/svg" viewBox="0 0 85.25 85.25"><defs><style>.cls-1{fill-rule:evenodd;}</style></defs><title>ul-black</title><g id="Layer_2" data-name="Layer 2"><g id="Layer_1-2" data-name="Layer 1"><g id="Layer1"><g id="Shape1"><path id="shapePath1" class="cls-1" d="M34.78,19.77h7.76v.94c0,7.92,0,15.85,0,23.77A8.22,8.22,0,0,1,35.87,53a12.85,12.85,0,0,1-9.81-1.07,7.9,7.9,0,0,1-3.88-5.35A9.65,9.65,0,0,1,22,44.36q0-11.76,0-23.53v-1h7.76v.91q0,11.92,0,23.85A2.49,2.49,0,0,0,33.24,47a2.77,2.77,0,0,0,1.53-2.83q0-11.69,0-23.36Z"/></g><g id="Shape2"><path id="shapePath2" class="cls-1" d="M55.29,58.25h9.05v7.37H47.61V32.23h7.68Z"/></g><g id="Shape3"><path id="shapePath3" class="cls-1" d="M42.63,8.09A34.54,34.54,0,1,0,77.16,42.63,34.57,34.57,0,0,0,42.63,8.09m0,77.16A42.63,42.63,0,0,1,12.48,12.48,42.63,42.63,0,0,1,72.77,72.77,42.37,42.37,0,0,1,42.63,85.25Z"/></g></g></g></g></svg>