<?xml version="1.0" encoding="utf-8"?>
<!-- Generator: Adobe Illustrator 22.0.1, SVG Export Plug-In . SVG Version: 6.00 Build 0)  -->
<svg version="1.1" id="Layer_1" xmlns="http://www.w3.org/2000/svg" xmlns:xlink="http://www.w3.org/1999/xlink" x="0px" y="0px"
	 viewBox="0 0 40 40" style="enable-background:new 0 0 40 40;" xml:space="preserve">
<style type="text/css">
	.st0{fill:#B10820;}
</style>
<g id="ul-logo">
	<path class="st0" d="M40,20c0,11-9,20-20,20C9,40,0,31,0,20C0,9,9,0,20,0C31,0,40,9,40,20z M20,3.6C10.9,3.6,3.6,10.9,3.6,20
		c0,9.1,7.3,16.4,16.4,16.4c9.1,0,16.4-7.3,16.4-16.4C36.4,10.9,29.1,3.6,20,3.6z"/>
	<polygon class="st0" points="30.1,30.9 22.3,30.9 22.3,15.2 25.9,15.2 25.9,27.5 30.1,27.5 	"/>
	<path class="st0" d="M19.8,20.8c0,2.9-2.1,4.4-4.8,4.4c-2.7,0-4.8-1.5-4.8-4.4V9.3h3.6V21c0,0.8,0.5,1.4,1.2,1.4
		c0.9,0,1.2-0.7,1.2-1.4V9.3h3.6L19.8,20.8L19.8,20.8L19.8,20.8z"/>
</g>
</svg>
