<?xml version="1.0" encoding="utf-8"?>
<!-- Generator: Adobe Illustrator 23.0.4, SVG Export Plug-In . SVG Version: 6.00 Build 0)  -->
<svg version="1.1" id="Layer_1" xmlns="http://www.w3.org/2000/svg" xmlns:xlink="http://www.w3.org/1999/xlink" x="0px" y="0px"
	 viewBox="0 0 512 512" style="enable-background:new 0 0 512 512;" xml:space="preserve">
<style type="text/css">
	.st0{opacity:0.95;}
	.st1{fill:#FFFFFF;}
</style>
<g>
	<g class="st0">
		
			<image style="overflow:visible;" width="576" height="576" xlink:href="CCE447D02D200441.png"  transform="matrix(1 0 0 1 -32 -32)">
		</image>
	</g>
	<path class="st1" d="M8,256C8,119,119,8,256,8s248,111,248,248S393,504,256,504S8,393,8,256z M80.5,381.9
		C119.7,436.4,183.7,472,256,472s136.3-35.6,175.5-90.1c-3.1-27-22.7-49.6-49.5-56.4l-32.4-8.1C323.6,339.8,290.7,352,256,352
		s-67.6-12.2-93.6-34.6l-32.4,8.1C103.1,332.2,83.6,354.9,80.5,381.9z M144,208c0,61.9,50.1,112,112,112s112-50.1,112-112
		S317.9,96,256,96S144,146.1,144,208z"/>
</g>
</svg>
